<svg width="758" height="152" viewBox="0 0 758 152" fill="none" xmlns="http://www.w3.org/2000/svg">
<path d="M298.91 152C289.003 152 278.235 150.089 269.189 146.48V108.268C280.173 115.911 288.788 119.52 295.68 119.52C301.925 119.52 307.094 116.547 307.094 108.905C307.094 103.598 304.51 99.1397 300.202 94.0447L282.758 73.4525C273.281 63.2626 268.543 51.7989 268.543 38.6369C268.543 14.0112 285.342 0 310.325 0C317.863 0 324.514 1.16136 332.698 3.49655V33.9665C331.795 33.6618 330.932 33.3682 330.105 33.0867C322.865 30.6227 318.343 29.0838 313.125 29.0838C307.094 29.0838 303.002 32.2682 303.002 38C303.002 41.6089 304.51 45.2179 308.386 49.4637L324.754 69.2067C337.03 82.7933 343.276 93.8324 343.276 110.179C343.276 136.927 325.831 152 298.91 152Z" fill="#111314"/>
<path d="M19.8139 150.089V33.9665H0V1.91061H74.3021V33.9665H54.7036V150.089H19.8139Z" fill="#111314"/>
<path fill-rule="evenodd" clip-rule="evenodd" d="M172.486 1.91061V150.089H207.376V102.749H214.698C246.142 102.749 265.31 83.6425 265.31 52.0112C265.31 20.5922 246.142 1.91061 214.698 1.91061H172.486ZM211.037 73.6648H207.376V30.9944H211.037C223.959 30.9944 230.851 38.2123 230.851 52.4358C230.851 66.8715 223.959 73.6648 211.037 73.6648Z" fill="#111314"/>
<path d="M359.031 33.9665V150.089H393.921V33.9665H413.519V1.91061H339.217V33.9665H359.031Z" fill="#111314"/>
<path d="M419.922 150.089V1.91061H454.812V150.089H419.922Z" fill="#111314"/>
<path d="M480.838 33.9665V150.089H515.728V33.9665H535.326V1.91061H461.024V33.9665H480.838Z" fill="#111314"/>
<path d="M604.567 151.575C559.986 151.575 528.973 121.855 528.973 76C528.973 30.1453 559.986 0.424576 604.567 0.424576C611.459 0.424576 618.997 1.27374 626.319 2.75978V40.1229C618.781 37.1508 611.244 35.8771 605.213 35.8771C583.246 35.8771 567.093 50.7374 567.093 76C567.093 101.263 583.246 116.123 605.213 116.123C611.244 116.123 618.781 114.849 626.319 111.877V149.24C618.997 150.726 611.459 151.575 604.567 151.575Z" fill="#111314"/>
<path d="M693.05 93.471V150.089H727.939V1.91061H693.05V59.9502H668.282V1.91061H633.393V150.089H668.282V93.471H693.05Z" fill="#111314"/>
<path d="M743.628 140.35V138.691H734.286V140.35H738.035V150.132H739.878V140.35H743.628Z" fill="#111314"/>
<path d="M758 150.132V138.691H755.188L751.962 148.094L748.737 138.691H745.925V150.132H747.768V141.061L750.993 150.132H752.932L756.157 141.061V150.132H758Z" fill="#111314"/>
<path fill-rule="evenodd" clip-rule="evenodd" d="M62.6189 150.142L89.9295 1.85794H142.332L169.643 150.142H133.579L129.462 122.246H102.8L98.6831 150.142H62.6189ZM107.025 93.6171H125.237L116.398 33.7242H115.864L107.025 93.6171Z" fill="#111314"/>
</svg>
